<?xml version="1.0" standalone="no"?>
<!DOCTYPE svg PUBLIC "-//W3C//DTD SVG 20010904//EN"
 "http://www.w3.org/TR/2001/REC-SVG-20010904/DTD/svg10.dtd">
<svg version="1.0" xmlns="http://www.w3.org/2000/svg"
 width="180.000000pt" height="180.000000pt" viewBox="0 0 180.000000 180.000000"
 preserveAspectRatio="xMidYMid meet">

<g transform="translate(0.000000,180.000000) scale(0.100000,-0.100000)"
fill="#000000" stroke="none">
<path d="M498 1713 c-6 -16 -11 -73 -12 -128 -1 -78 4 -116 22 -172 16 -53 20
-81 14 -109 l-8 -38 -53 3 c-36 2 -51 -1 -46 -8 3 -6 17 -11 30 -11 39 0 75
-18 75 -38 0 -14 -11 -21 -47 -28 -25 -5 -49 -15 -51 -23 -3 -10 3 -11 29 -5
48 11 74 11 75 -1 1 -5 -84 -32 -188 -59 l-189 -49 -55 -108 c-30 -60 -54
-117 -54 -126 0 -13 19 -25 68 -43 l67 -25 5 -185 5 -185 345 -152 c190 -84
352 -152 361 -153 23 0 702 298 711 313 4 6 8 91 8 188 l0 175 66 24 c36 12
68 29 71 36 3 8 -20 65 -50 127 l-54 113 -196 50 c-138 34 -197 53 -197 63 0
13 36 12 98 -5 13 -4 22 -2 22 4 0 6 -19 16 -42 22 -66 17 -67 17 -61 39 4 16
16 22 54 27 64 9 64 27 0 22 l-50 -3 -10 38 c-7 32 -5 49 12 95 29 77 32 301
5 328 -16 16 -21 15 -92 -19 -41 -21 -101 -56 -133 -80 l-58 -42 -105 1 -105
0 -64 47 c-61 45 -177 107 -200 107 -6 0 -16 -12 -23 -27z m230 -127 l50 -43
61 10 c40 6 78 6 111 0 50 -10 51 -10 105 32 63 49 138 95 155 95 7 0 -10 -26
-37 -57 -27 -32 -59 -70 -70 -86 l-21 -27 49 -51 c28 -28 51 -50 52 -48 12 18
37 82 34 85 -2 2 -12 -5 -22 -16 -40 -44 -48 -12 -10 40 32 44 25 49 -20 15
-19 -15 -37 -26 -39 -24 -2 2 26 41 62 87 l67 84 8 -34 c13 -48 2 -164 -23
-237 -18 -54 -20 -71 -11 -112 6 -27 9 -54 7 -61 -3 -7 -7 -25 -10 -40 -8 -37
-51 -85 -98 -109 -41 -21 -43 -43 -3 -33 29 7 58 -8 83 -43 32 -46 36 -70 13
-82 -16 -9 -22 -6 -39 24 -27 45 -84 64 -142 46 -47 -14 -72 -47 -80 -104 -4
-36 -9 -42 -38 -49 -21 -6 -46 -5 -67 2 -31 10 -33 14 -28 44 4 27 -1 39 -27
69 -54 62 -129 62 -186 1 -18 -19 -40 -34 -50 -34 -26 0 -10 58 29 98 27 28
37 33 65 28 38 -6 46 18 10 30 -81 25 -124 102 -114 201 5 50 2 78 -14 129
-14 48 -20 94 -20 165 0 54 3 99 8 99 9 -1 132 -163 127 -168 -2 -3 -18 7 -35
22 -28 23 -50 33 -50 22 0 -2 14 -20 30 -41 22 -28 27 -42 20 -49 -8 -8 -16
-4 -29 13 -10 13 -21 19 -24 14 -4 -6 0 -19 8 -29 8 -10 15 -27 15 -36 0 -28
12 -22 64 33 l47 50 -40 52 c-23 29 -56 70 -74 91 l-32 40 62 -33 c34 -18 84
-52 111 -75z m-139 -489 c20 -25 -25 -50 -137 -77 -109 -26 -136 -26 -212 6
-8 4 43 22 115 40 146 38 168 41 141 21 -11 -8 -17 -19 -15 -26 3 -8 18 -1 44
18 46 35 49 36 64 18z m961 -66 c0 -4 -24 -13 -52 -21 -51 -15 -58 -14 -165
11 -107 25 -143 40 -143 61 0 21 33 19 69 -5 44 -30 61 -24 30 9 -20 22 -16
21 120 -14 78 -19 141 -38 141 -41z m-1171 -81 c113 -33 205 -61 206 -63 1 -1
8 -13 14 -25 21 -41 129 -70 147 -41 7 12 94 7 115 -6 5 -4 -16 -55 -52 -123
-34 -64 -63 -118 -64 -120 -6 -7 -665 244 -665 253 0 14 82 185 89 185 4 0 98
-27 210 -60z m1289 -32 c23 -50 39 -95 35 -99 -7 -7 -612 -234 -642 -241 -19
-4 -144 223 -131 236 11 11 74 12 130 1 50 -9 112 14 128 47 10 21 26 32 70
44 31 9 120 36 197 59 77 24 147 43 155 43 9 1 31 -33 58 -90z m-910 42 c30
-18 37 -34 32 -70 -3 -24 -11 -26 -21 -7 -15 25 -27 21 -31 -10 -2 -22 -8 -28
-28 -28 -20 0 -26 6 -28 28 -4 31 -22 37 -22 7 0 -23 -10 -26 -28 -8 -27 27
-6 79 39 97 36 14 51 13 87 -9z m356 10 c39 -14 61 -55 48 -85 -14 -30 -32
-33 -32 -5 0 31 -17 24 -23 -10 -10 -48 -67 -35 -67 14 -1 21 -1 21 -15 2 -12
-16 -18 -17 -27 -8 -20 20 3 65 42 84 41 21 41 21 74 8z m-237 -857 c-3 -2
-152 61 -333 141 l-329 144 -3 153 c-1 84 0 159 2 165 3 8 86 -18 258 -82 139
-52 262 -94 273 -94 15 0 33 25 75 103 l55 102 3 -314 c1 -173 1 -316 -1 -318z
m97 525 c28 -51 58 -94 67 -96 13 -2 262 85 502 177 l27 11 0 -168 0 -167
-321 -140 c-176 -77 -325 -141 -330 -143 -5 -2 -9 127 -9 314 0 174 3 315 6
311 4 -3 29 -48 58 -99z"/>
<path d="M666 1283 c12 -69 83 -113 99 -62 7 19 8 20 26 3 28 -25 34 -10 13
27 -22 37 -76 69 -117 69 -27 0 -28 -1 -21 -37z m58 -2 c8 -13 -4 -42 -15 -35
-12 7 -12 44 0 44 6 0 12 -4 15 -9z"/>
<path d="M1044 1306 c-33 -15 -74 -60 -74 -82 0 -20 17 -17 25 3 6 16 8 15 24
-5 33 -45 96 -7 103 63 3 26 -1 30 -22 32 -14 2 -39 -3 -56 -11z m46 -25 c0
-17 -12 -41 -21 -41 -5 0 -9 11 -9 25 0 16 6 25 15 25 8 0 15 -4 15 -9z"/>
<path d="M860 1171 c0 -6 5 -13 10 -16 17 -11 11 -33 -11 -40 -14 -5 -18 -10
-11 -17 6 -6 16 -6 29 0 12 7 25 7 36 1 9 -6 22 -7 29 -3 7 4 1 12 -17 21 -20
11 -24 18 -16 26 20 20 12 37 -19 37 -16 0 -30 -4 -30 -9z"/>
</g>
</svg>
