<?xml version="1.0" encoding="UTF-8"?>
<svg version="1.1" xmlns="http://www.w3.org/2000/svg" width="180" height="180">
<path d="M0 0 C9.85531146 0.91756348 20.15368512 8.15368512 27 15 C35.10029085 15.99461312 44.88007169 16.85726746 52.4140625 13.4609375 C55.02199897 11.47099676 55.02199897 11.47099676 57.41015625 9.25 C60.5298995 6.53963483 63.75687402 4.7726117 67.4375 2.9375 C68.59121094 2.34839844 69.74492188 1.75929688 70.93359375 1.15234375 C73.97642839 0.00885812 75.07257706 -0.25871994 78 1 C81.97530806 12.92592417 80.49170895 25.18608318 77 37 C76.1163382 40.75556265 76.03278675 43.23861512 77 47 C80.3 47 83.6 47 87 47 C87 47.99 87 48.98 87 50 C85.93458984 50.29003906 85.93458984 50.29003906 84.84765625 50.5859375 C83.46900391 50.97652344 83.46900391 50.97652344 82.0625 51.375 C81.14597656 51.63023438 80.22945312 51.88546875 79.28515625 52.1484375 C76.83254913 52.76660104 76.83254913 52.76660104 76 55 C77.0725 55.12375 78.145 55.2475 79.25 55.375 C82.37863615 55.89643936 84.33480424 56.40088254 87 58 C86.67 58.99 86.34 59.98 86 61 C83.36 60.67 80.72 60.34 78 60 C79.55110474 60.34611328 79.55110474 60.34611328 81.13354492 60.69921875 C84.99001802 61.56880089 88.83540181 62.48088899 92.67895508 63.40576172 C94.33966975 63.79916118 96.00312547 64.18117878 97.66918945 64.55126953 C113.31545352 68.04069046 113.31545352 68.04069046 116.375 72.828125 C117.2722168 74.90820313 117.2722168 74.90820313 118 77 C118.66186408 78.31305553 119.33494475 79.62052177 120.01953125 80.921875 C120.62256718 82.19538314 121.22027769 83.47142733 121.8125 84.75 C122.12380859 85.39582031 122.43511719 86.04164062 122.75585938 86.70703125 C124.35045058 90.12050781 125 92.1583697 125 96 C123.06532058 96.83986084 121.12714871 97.67168027 119.1875 98.5 C117.56908203 99.19609375 117.56908203 99.19609375 115.91796875 99.90625 C113 101 113 101 110 101 C110 113.21 110 125.42 110 138 C102.82876417 141.58561792 95.75683657 145.09170286 88.421875 148.27734375 C87.56676331 148.65178116 86.71165161 149.02621857 85.83062744 149.41200256 C83.13835705 150.59010477 80.44423771 151.76390502 77.75 152.9375 C75.07971696 154.10462589 72.40981123 155.27260921 69.7401123 156.44107056 C67.9962634 157.20256311 66.25123691 157.96136505 64.50500488 158.71737671 C60.4385065 160.47986513 56.39359826 162.2702506 52.38476562 164.16064453 C51.66532776 164.49375137 50.94588989 164.82685822 50.20465088 165.1700592 C48.87904309 165.78587276 47.55945235 166.41490546 46.24798584 167.06028748 C41.09974101 169.4271471 37.36402996 169.18422147 32.07366943 167.32188416 C29.93415057 166.46867868 27.83533785 165.54956471 25.734375 164.60546875 C24.9507811 164.26168182 24.16718719 163.9178949 23.35984802 163.56369019 C20.81944242 162.44666748 18.28469367 161.31741649 15.75 160.1875 C14.0007093 159.41459842 12.25111396 158.64238599 10.5012207 157.87084961 C6.99362554 156.32265667 3.48834096 154.76940127 -0.01513672 153.21191406 C-4.50474548 151.21708322 -9.00286566 149.24230266 -13.50390625 147.2734375 C-15.94053662 146.20410669 -18.37650018 145.1332673 -20.8125 144.0625 C-22.49037598 143.32906372 -22.49037598 143.32906372 -24.20214844 142.58081055 C-25.21438477 142.13261963 -26.22662109 141.68442871 -27.26953125 141.22265625 C-28.14198486 140.83859619 -29.01443848 140.45453613 -29.91333008 140.05883789 C-32 139 -32 139 -34 137 C-34.17517747 134.27514272 -34.23149133 131.65340638 -34.1953125 128.9296875 C-34.1924826 128.13345978 -34.18965271 127.33723206 -34.18673706 126.51687622 C-34.1755264 123.96943237 -34.15042062 121.42233789 -34.125 118.875 C-34.11497133 117.14974465 -34.10584528 115.42448381 -34.09765625 113.69921875 C-34.07558422 109.46601086 -34.04104867 105.2330647 -34 101 C-34.67546875 100.80664062 -35.3509375 100.61328125 -36.046875 100.4140625 C-36.93890625 100.15367188 -37.8309375 99.89328125 -38.75 99.625 C-40.07257812 99.24214844 -40.07257812 99.24214844 -41.421875 98.8515625 C-43.76080572 98.0790066 -45.83442562 97.16374324 -48 96 C-47.52905251 89.66361556 -45.34328165 84.85369815 -42.4375 79.25 C-42.03208984 78.40050781 -41.62667969 77.55101563 -41.20898438 76.67578125 C-39.07345633 72.53553851 -37.74350814 70.40009027 -33.56640625 68.15234375 C-32.05452502 67.72966728 -30.5299556 67.35167615 -29 67 C-27.92290771 66.71366699 -26.84581543 66.42733398 -25.73608398 66.13232422 C-21.99988063 65.15112945 -18.25328672 64.22602863 -14.5 63.3125 C-13.18739122 62.98937385 -11.87489022 62.66580955 -10.5625 62.34179688 C-7.37603031 61.55689442 -4.18854347 60.7764269 -1 60 C-3.64 60.33 -6.28 60.66 -9 61 C-9.495 59.02 -9.495 59.02 -10 57 C-6.7 56.34 -3.4 55.68 0 55 C0 54.01 0 53.02 0 52 C-0.93972656 51.90912109 -0.93972656 51.90912109 -1.8984375 51.81640625 C-2.71570312 51.73261719 -3.53296875 51.64882813 -4.375 51.5625 C-5.18710937 51.48128906 -5.99921875 51.40007813 -6.8359375 51.31640625 C-9 51 -9 51 -11 50 C-11 49.01 -11 48.02 -11 47 C-9.54176788 46.9729957 -8.08339325 46.95360213 -6.625 46.9375 C-5.40683594 46.92009766 -5.40683594 46.92009766 -4.1640625 46.90234375 C-2 47 -2 47 0 48 C0.24095248 43.0203154 0.17850028 39.04283092 -1.4375 34.3125 C-4.8211099 23.90387144 -4.77019112 12.56236615 -2 2 C-1.34 1.34 -0.68 0.68 0 0 Z " fill="#0B0B0B" transform="translate(51,5)"/>
<path d="M0 0 C3.855631 1.28521033 4.67652491 2.95841029 7 6.25 C8.0209375 7.68085938 8.0209375 7.68085938 9.0625 9.140625 C10.80583525 11.71345041 12.43324033 14.31692407 14 17 C10.06326356 15.68775452 7.77280706 14.08089673 5 11 C5 12.32 5 13.64 5 15 C5.639375 15.226875 6.27875 15.45375 6.9375 15.6875 C9 17 9 17 9.75 19.625 C9.8325 20.40875 9.915 21.1925 10 22 C8 22 8 22 5.875 20 C5.25625 19.34 4.6375 18.68 4 18 C4.495 18.7425 4.99 19.485 5.5 20.25 C7 23 7 23 7 27 C10.60062011 24.22237877 13.83047153 21.26008643 17 18 C15.53416665 13.45928635 12.95468267 10.23733031 9.875 6.6875 C9.40707031 6.13771484 8.93914063 5.58792969 8.45703125 5.02148438 C7.31047517 3.67603591 6.15602549 2.337321 5 1 C5.66 0.67 6.32 0.34 7 0 C9.390625 1.2578125 9.390625 1.2578125 12.25 3.125 C13.18328125 3.72570312 14.1165625 4.32640625 15.078125 4.9453125 C18 7 18 7 20.5625 9.69140625 C25.13065967 13.54994888 31.07766325 12.84124495 36.75 12.8125 C38.44382812 12.87920898 38.44382812 12.87920898 40.171875 12.94726562 C49.26606399 12.97357983 53.4973532 10.05094884 60 4 C65.91394505 0 65.91394505 0 69 0 C66.92627912 4.80468662 63.37227812 8.41117045 59.99609375 12.34375 C58.19966311 14.73430349 57.3909873 16.09160321 57 19 C57.5775 19.226875 58.155 19.45375 58.75 19.6875 C61.56427613 21.32916107 63.02737733 23.43559053 65 26 C65.66 26.33 66.32 26.66 67 27 C67.33 24.69 67.66 22.38 68 20 C66.68 20.66 65.36 21.32 64 22 C64.55728913 18.65626525 65.35173889 15.96687001 67 13 C65.02 14.65 63.04 16.3 61 18 C61 14.65255624 61.34583316 14.18646042 63.3359375 11.6796875 C63.82320312 11.06222656 64.31046875 10.44476563 64.8125 9.80859375 C65.328125 9.17050781 65.84375 8.53242188 66.375 7.875 C66.88289063 7.22917969 67.39078125 6.58335938 67.9140625 5.91796875 C71.72068271 1.13965865 71.72068271 1.13965865 74 0 C78.08065935 8.1613187 74.30808533 20.10760081 71.87890625 28.1484375 C70.61813481 33.67341813 70.84040871 38.80956089 71.15234375 44.44140625 C70.95458775 49.06078367 69.59985837 52.15972576 66.5703125 55.64453125 C63.43543388 58.17785208 61.04049787 59.64348548 57 60 C57 60.99 57 61.98 57 63 C58.051875 62.7525 59.10375 62.505 60.1875 62.25 C64 62 64 62 66.75 63.625 C69.01029705 66.01086911 70.65041383 68.00091963 72 71 C71.6875 73.3125 71.6875 73.3125 71 75 C66.74545047 74.52727227 64.80795427 72.03562624 62 69 C60.44969882 67.44969882 58.96323999 67.75594901 56.8125 67.6875 C52.08559367 67.78534997 49.40883565 68.50802202 46 72 C45.32551808 74.58135055 44.93510471 77.1407903 44.53515625 79.77734375 C44 82 44 82 41.875 83.6875 C38.04718148 84.10356723 34.79838872 83.6437947 31 83 C31.00902344 82.41992188 31.01804687 81.83984375 31.02734375 81.2421875 C30.85410152 76.67763137 30.37059851 73.68354983 27 70.4375 C23.47144693 67.84361499 20.49506333 67.17532911 16.15234375 67.46484375 C12.44974028 68.38545478 10.61285404 70.25650326 8 73 C7.505 73.99 7.505 73.99 7 75 C5.68 75 4.36 75 3 75 C3.1736421 70.65894754 3.75652104 67.74992562 6.625 64.5 C9.39327068 61.96017884 9.82815817 61.99445672 13.875 62.125 C15.421875 62.558125 15.421875 62.558125 17 63 C17 62.01 17 61.02 17 60 C16.278125 59.9175 15.55625 59.835 14.8125 59.75 C9.94476921 58.45193846 6.63574574 55.21719318 4 51 C2.57154862 47.0574742 3.01356843 42.99572152 3.125 38.875 C3.2022328 34.02406867 3.2630993 29.77650144 1.5 25.1875 C-1.41889029 17.36268143 -0.23336699 8.22169872 0 0 Z " fill="#F4F3F4" transform="translate(52,12)"/>
<path d="M0 0 C0.33 0 0.66 0 1 0 C1 20.79 1 41.58 1 63 C-4.55198306 61.14933898 -8.73625295 59.70105135 -13.70703125 57.1015625 C-17.55352697 55.25367188 -21.55962417 53.82522058 -25.55859375 52.34375 C-28.87156867 51.05014799 -32.1050598 49.64853596 -35.34790039 48.19091797 C-38.47578362 46.78635069 -41.61272431 45.40298949 -44.75 44.01953125 C-46.55327934 43.22188919 -48.35655714 42.4242436 -50.15966797 41.6262207 C-51.4005234 41.07756441 -52.64174275 40.52973054 -53.88330078 39.98266602 C-55.69398656 39.18461252 -57.50326835 38.38337589 -59.3125 37.58203125 C-60.38113281 37.10999268 -61.44976562 36.6379541 -62.55078125 36.15161133 C-65 35 -65 35 -66 34 C-66.08843793 31.55169574 -66.11528752 29.13179401 -66.09765625 26.68359375 C-66.0962413 25.95253922 -66.09482635 25.22148468 -66.09336853 24.46827698 C-66.08775408 22.12464368 -66.07519922 19.78110461 -66.0625 17.4375 C-66.05748686 15.85221492 -66.05292363 14.26692834 -66.04882812 12.68164062 C-66.03777997 8.7877239 -66.02050572 4.89387795 -66 1 C-62.03305824 1.93579417 -58.29865811 3.35371848 -54.5 4.8125 C-49.6136223 6.67173683 -44.72694676 8.45618385 -39.75 10.0625 C-35.72675973 11.36733468 -31.87790507 12.87470712 -28 14.5625 C-22.14080713 17.07358266 -16.21773969 18.64400358 -10 20 C-9.75507812 19.16210938 -9.51015625 18.32421875 -9.2578125 17.4609375 C-7.838539 13.55573153 -5.98142234 10.19028729 -3.875 6.625 C-3.50246094 5.98433594 -3.12992188 5.34367187 -2.74609375 4.68359375 C-1.83565998 3.11951523 -0.91851809 1.55934466 0 0 Z " fill="#F7F7F7" transform="translate(87,106)"/>
<path d="M0 0 C2.41004006 2.41004006 3.68015883 3.92782396 5.26171875 6.79296875 C5.65810547 7.50517578 6.05449219 8.21738281 6.46289062 8.95117188 C6.86701172 9.68916016 7.27113281 10.42714844 7.6875 11.1875 C8.10322266 11.93708984 8.51894531 12.68667969 8.94726562 13.45898438 C9.96937725 15.30348466 10.9852981 17.1514131 12 19 C17.17852189 18.43943835 21.65681431 17.18667039 26.5 15.25 C31.87775706 13.16081297 37.26115161 11.21629346 42.75 9.4375 C48.4925996 7.56583791 54.0038968 5.39382233 59.51171875 2.91796875 C62 2 62 2 66 2 C66 12.89 66 23.78 66 35 C62.41125 36.505625 58.8225 38.01125 55.125 39.5625 C42.44735628 44.90115421 29.86312117 50.44211587 17.30126953 56.04711914 C15.90397471 56.66813906 14.50667668 57.28915177 13.109375 57.91015625 C12.47907379 58.19306519 11.84877258 58.47597412 11.19937134 58.76745605 C7.48962462 60.41373006 3.87590443 61.70803186 0 63 C0 42.21 0 21.42 0 0 Z " fill="#F8F8F8" transform="translate(91,106)"/>
<path d="M0 0 C7.67820639 1.57838932 15.12235638 3.73937812 22.625 6 C24.99210992 6.70859256 27.35929519 7.41693344 29.7265625 8.125 C31.36902954 8.62205444 31.36902954 8.62205444 33.04467773 9.12915039 C35.42146319 9.82952162 37.79656543 10.45754094 40.19921875 11.05859375 C44.04331357 12.35068141 44.92163683 14.63161831 47 18 C50.37513759 19.62937677 54.31233517 19.13915716 58 19 C58.495 18.505 58.495 18.505 59 18 C63.6204683 17.73343452 66.78784186 18.16262757 71 20 C67 28 63 36 59 44 C51.84041141 42.22162327 45.0419652 40.12934096 38.3359375 37.03515625 C32.02554938 34.2387468 25.43214163 32.13294569 18.875 30 C14.54382709 28.57299837 10.43331405 26.9374833 6.30859375 25 C2.69748606 23.43579769 -1.05702438 22.29337019 -4.8125 21.125 C-7 20 -7 20 -7.73999023 18.17285156 C-8.0551869 15.5388137 -7.57005206 14.44133007 -6.34765625 12.109375 C-5.98349609 11.40039062 -5.61933594 10.69140625 -5.24414062 9.9609375 C-4.85419922 9.23132813 -4.46425781 8.50171875 -4.0625 7.75 C-3.67642578 7.00492187 -3.29035156 6.25984375 -2.89257812 5.4921875 C-1.93909834 3.65585606 -0.97094323 1.82715793 0 0 Z " fill="#F7F7F7" transform="translate(16,79)"/>
<path d="M0 0 C1.2065625 0.0309375 1.2065625 0.0309375 2.4375 0.0625 C3.80771794 2.82567623 5.15580176 5.59908478 6.5 8.375 C7.08491211 9.55352539 7.08491211 9.55352539 7.68164062 10.75585938 C8.04580078 11.51318359 8.40996094 12.27050781 8.78515625 13.05078125 C9.12554932 13.74727783 9.46594238 14.44377441 9.81665039 15.16137695 C10.4375 17.0625 10.4375 17.0625 9.4375 20.0625 C7.46313477 21.07397461 7.46313477 21.07397461 4.87890625 21.96484375 C3.93466797 22.29806641 2.99042969 22.63128906 2.01757812 22.97460938 C1.02177734 23.31298828 0.02597656 23.65136719 -1 24 C-2.93676146 24.67416445 -4.87296345 25.3499384 -6.80859375 26.02734375 C-7.77958008 26.36588379 -8.75056641 26.70442383 -9.75097656 27.05322266 C-13.13132135 28.26669481 -16.45126813 29.60265828 -19.77856445 30.95336914 C-25.1222237 33.08230398 -30.51850307 35.07248804 -35.91455078 37.06396484 C-37.27496579 37.56734795 -38.63432855 38.07358306 -39.99267578 38.58251953 C-41.97982521 39.3269286 -43.96994194 40.06282474 -45.9609375 40.796875 C-47.13317871 41.23225586 -48.30541992 41.66763672 -49.51318359 42.11621094 C-52.5625 43.0625 -52.5625 43.0625 -56.5625 43.0625 C-58.59628113 39.44461799 -60.6122833 35.81713659 -62.625 32.1875 C-63.20572266 31.15496094 -63.78644531 30.12242188 -64.38476562 29.05859375 C-64.92939453 28.07246094 -65.47402344 27.08632812 -66.03515625 26.0703125 C-66.54312744 25.15910645 -67.05109863 24.24790039 -67.57446289 23.30908203 C-68.06354126 22.19702393 -68.06354126 22.19702393 -68.5625 21.0625 C-68.2325 20.4025 -67.9025 19.7425 -67.5625 19.0625 C-60.38355263 17.78881579 -60.38355263 17.78881579 -56.5625 19.0625 C-52.14325224 19.22926407 -47.81524473 19.34821352 -43.5625 18.0625 C-43.28575439 17.27391602 -43.00900879 16.48533203 -42.72387695 15.67285156 C-41.18512172 12.21429134 -39.77922326 11.82624752 -36.29296875 10.484375 C-29.61369694 7.93361768 -22.79937712 6.06620369 -15.875 4.3125 C-13.55785426 3.71640887 -11.24140367 3.11760657 -8.92578125 2.515625 C-7.91813721 2.25942383 -6.91049316 2.00322266 -5.87231445 1.73925781 C-3.07795771 0.92053285 -2.98090854 0.07270509 0 0 Z " fill="#F7F7F7" transform="translate(160.5625,78.9375)"/>
<path d="M0 0 C3.39227728 1.8084657 5.83417255 3.81190199 8 7 C8.62758131 10.12308179 8.51145119 12.86736149 8 16 C12.51617599 16.07654536 16.59085217 16.10228696 21 15 C20.9175 13.783125 20.835 12.56625 20.75 11.3125 C20.75 8.02392956 20.96424484 7.05874062 22.75 4.125 C26.81920636 0.28186066 30.25740954 -0.49408993 35.7421875 -0.39453125 C39.59075968 0.27797012 41.33977988 2.20676888 44 5 C44.495 5.99 44.495 5.99 45 7 C47.475 6.505 47.475 6.505 50 6 C49.67 6.99 49.34 7.98 49 9 C49.99 9.99 49.99 9.99 51 11 C50.071875 11.226875 49.14375 11.45375 48.1875 11.6875 C44.8462775 12.69236066 44.8462775 12.69236066 43.5 15.5 C42 18 42 18 39.25 19.3125 C34.40079913 20.33829249 30.18905453 20.20153467 25.3125 19.375 C21.80511234 18.97793725 20.93269593 19.32599927 18 21 C18.33322266 21.59014893 18.66644531 22.18029785 19.00976562 22.78833008 C20.51311285 25.45939963 22.00664361 28.13583295 23.5 30.8125 C24.02464844 31.74126953 24.54929687 32.67003906 25.08984375 33.62695312 C25.83427734 34.9659668 25.83427734 34.9659668 26.59375 36.33203125 C27.05458984 37.15421143 27.51542969 37.9763916 27.99023438 38.82348633 C29 41 29 41 29 44 C30.485 44.495 30.485 44.495 32 45 C31.505 45.99 31.505 45.99 31 47 C29.02 46.505 29.02 46.505 27 46 C23.7 40.06 20.4 34.12 17 28 C16.67 48.46 16.34 68.92 16 90 C14.515 89.505 14.515 89.505 13 89 C12.67 68.87 12.34 48.74 12 28 C8.7 34.27 5.4 40.54 2 47 C-4.36049564 46.29327826 -8.32313465 45.80975406 -14 43.6875 C-15.21171875 43.23632812 -16.4234375 42.78515625 -17.671875 42.3203125 C-20.24370932 41.30003081 -22.74676709 40.23527447 -25.25 39.0625 C-30.60257449 36.56463191 -36.25647953 34.87613818 -41.88183594 33.10571289 C-42.64141602 32.86199951 -43.40099609 32.61828613 -44.18359375 32.3671875 C-44.86993896 32.15175293 -45.55628418 31.93631836 -46.26342773 31.71435547 C-48 31 -48 31 -50 29 C-40.31388405 26.35833201 -31.00608857 31.94711335 -22.23046875 35.703125 C-17.31490695 37.67648234 -12.29357534 39.27382539 -7.25 40.88671875 C-4.67627219 41.76834426 -2.3778411 42.698132 0 44 C0.23460937 43.19304687 0.46921875 42.38609375 0.7109375 41.5546875 C2.30000035 37.1727263 4.40649114 33.21537571 6.625 29.125 C7.04523438 28.34125 7.46546875 27.5575 7.8984375 26.75 C8.9281022 24.83107943 9.96347567 22.91522397 11 21 C7.20129266 18.87842614 4.35713932 18.75336947 0 19 C-0.495 19.495 -0.495 19.495 -1 20 C-5.49516871 20.25933666 -9.02065669 20.21074629 -13 18 C-16 14.68965517 -16 14.68965517 -16 12 C-18.31 11.67 -20.62 11.34 -23 11 C-20.66785852 9.79371992 -18.50357861 8.8345262 -16 8 C-15.71125 7.401875 -15.4225 6.80375 -15.125 6.1875 C-11.91882682 -0.04672563 -6.49310724 -1.56952592 0 0 Z " fill="#161616" transform="translate(75,79)"/>
<path d="M0 0 C3.39227728 1.8084657 5.83417255 3.81190199 8 7 C8.62758131 10.12308179 8.51145119 12.86736149 8 16 C8.99 16.33 9.98 16.66 11 17 C10.67 17.66 10.34 18.32 10 19 C9.28972656 18.98839844 8.57945313 18.97679688 7.84765625 18.96484375 C6.92855469 18.95582031 6.00945312 18.94679688 5.0625 18.9375 C3.68771484 18.92009766 3.68771484 18.92009766 2.28515625 18.90234375 C0.03406673 18.74050951 0.03406673 18.74050951 -1 20 C-5.49516871 20.25933666 -9.02065669 20.21074629 -13 18 C-16 14.68965517 -16 14.68965517 -16 12 C-18.31 11.67 -20.62 11.34 -23 11 C-20.66785852 9.79371992 -18.50357861 8.8345262 -16 8 C-15.71125 7.401875 -15.4225 6.80375 -15.125 6.1875 C-11.91882682 -0.04672563 -6.49310724 -1.56952592 0 0 Z " fill="#1F1F1F" transform="translate(75,79)"/>
<path d="M0 0 C-0.99 0.66 -1.98 1.32 -3 2 C-2.01 2.33 -1.02 2.66 0 3 C0 13.89 0 24.78 0 36 C-0.33 36 -0.66 36 -1 36 C-1 25.44 -1 14.88 -1 4 C-11.60878076 7.47654505 -11.60878076 7.47654505 -22.06640625 11.26171875 C-24.42924669 12.16389419 -26.8078849 13.01806544 -29.1875 13.875 C-34.54378989 15.81254062 -39.85028094 17.86833626 -45.15234375 19.94921875 C-47.43699388 20.79225152 -49.62624633 21.47949016 -52 22 C-52 21.34 -52 20.68 -52 20 C-52.66 19.34 -53.32 18.68 -54 18 C-52.77667969 17.57589844 -51.55335937 17.15179688 -50.29296875 16.71484375 C-41.52551555 13.66628681 -32.77268731 10.58396958 -24.0625 7.375 C-22.89025879 6.94368774 -22.89025879 6.94368774 -21.69433594 6.50366211 C-18.1112542 5.17798242 -14.54104873 3.82899116 -10.9921875 2.4140625 C-9.81914062 1.94742188 -8.64609375 1.48078125 -7.4375 1 C-6.42558594 0.5875 -5.41367188 0.175 -4.37109375 -0.25 C-2 -1 -2 -1 0 0 Z " fill="#373737" transform="translate(158,104)"/>
<path d="M0 0 C1.32 0.66 2.64 1.32 4 2 C4 4 4 4 2.5234375 5.4921875 C-0.95274213 7.56928555 -4.44213461 8.28031242 -8.375 9.125 C-9.48875 9.37830078 -9.48875 9.37830078 -10.625 9.63671875 C-12.74603479 10.11263998 -14.87141524 10.55929009 -17 11 C-18.05703125 11.23332031 -19.1140625 11.46664062 -20.203125 11.70703125 C-23.35779014 12.03747802 -25.3847966 11.57270385 -28.375 10.5625 C-29.24898437 10.27503906 -30.12296875 9.98757812 -31.0234375 9.69140625 C-31.67570312 9.46324219 -32.32796875 9.23507813 -33 9 C-33 8.34 -33 7.68 -33 7 C-32.40461426 6.85377197 -31.80922852 6.70754395 -31.19580078 6.55688477 C-28.50492304 5.89454315 -25.81495783 5.22856732 -23.125 4.5625 C-22.18785156 4.33240234 -21.25070313 4.10230469 -20.28515625 3.86523438 C-19.38925781 3.64287109 -18.49335937 3.42050781 -17.5703125 3.19140625 C-16.32918701 2.88505249 -16.32918701 2.88505249 -15.06298828 2.57250977 C-12.96004845 2.05992006 -12.96004845 2.05992006 -11 1 C-9.00039988 0.960008 -6.99952758 0.95653201 -5 1 C-5.33 1.66 -5.66 2.32 -6 3 C-6.66 3 -7.32 3 -8 3 C-8 3.66 -8 4.32 -8 5 C-6.865625 4.360625 -5.73125 3.72125 -4.5625 3.0625 C-3.92441406 2.70285156 -3.28632812 2.34320313 -2.62890625 1.97265625 C-1.02121854 1.1027487 -1.02121854 1.1027487 0 0 Z " fill="#E3E3E3" transform="translate(56,69)"/>
<path d="M0 0 C6.01423101 1.48963592 12.00964237 3.04229414 18 4.625 C19.30517578 4.96917969 19.30517578 4.96917969 20.63671875 5.3203125 C22.75793294 5.87975361 24.87902377 6.43965755 27 7 C27 7.66 27 8.32 27 9 C17.09813322 12.91469152 4.75647049 10.6238319 -5 7 C-6.8359375 5.3984375 -6.8359375 5.3984375 -8 4 C-7.67 3.01 -7.34 2.02 -7 1 C-2.48521602 1.53115106 0.34666857 3.36620292 4 6 C3.34 5.38125 2.68 4.7625 2 4.125 C0 2 0 2 0 0 Z " fill="#EEEDEE" transform="translate(127,69)"/>
<path d="M0 0 C2.875 1.5625 2.875 1.5625 5 4 C5.3125 7.75 5.3125 7.75 5 11 C3 11 3 11 1.375 9.5 C0.92125 9.005 0.4675 8.51 0 8 C0 9.65 0 11.3 0 13 C-1.65614657 13.38218767 -3.32457024 13.71395102 -5 14 C-6 13 -6 13 -6.0625 10.4375 C-6.041875 9.633125 -6.02125 8.82875 -6 8 C-6.66 8 -7.32 8 -8 8 C-8 9.32 -8 10.64 -8 12 C-9.32 11.34 -10.64 10.68 -12 10 C-12.25 7.75 -12.25 7.75 -12 5 C-8.337967 0.6055604 -5.71189826 -0.55999003 0 0 Z " fill="#E9E9E9" transform="translate(74,82)"/>
<path d="M0 0 C2.5625 1.0625 2.5625 1.0625 4 3 C4.25 6.6875 4.25 6.6875 4 10 C3.01 10.33 2.02 10.66 1 11 C1 9.68 1 8.36 1 7 C0.34 7 -0.32 7 -1 7 C-1.33 8.65 -1.66 10.3 -2 12 C-3.875 12.625 -3.875 12.625 -6 13 C-6.66 12.34 -7.32 11.68 -8 11 C-8 9.68 -8 8.36 -8 7 C-8.66 7 -9.32 7 -10 7 C-10 7.99 -10 8.98 -10 10 C-10.99 9.67 -11.98 9.34 -13 9 C-12.39083233 3.51749095 -12.39083233 3.51749095 -10.734375 1.32421875 C-7.54350667 -1.11205234 -3.82414495 -0.490098 0 0 Z " fill="#EEEEEE" transform="translate(112,83)"/>
<path d="M0 0 C7.61406844 -0.76140684 7.61406844 -0.76140684 10.8984375 1.04296875 C13.03929768 2.82353782 14.74757112 4.49514224 16 7 C17.65 6.67 19.3 6.34 21 6 C20.67 6.99 20.34 7.98 20 9 C20.66 9.66 21.32 10.32 22 11 C21.071875 11.226875 20.14375 11.45375 19.1875 11.6875 C15.8462775 12.69236066 15.8462775 12.69236066 14.5 15.5 C13 18 13 18 10.25 19.3125 C6.74352231 20.0542549 3.57414165 20.14296567 0 20 C0 19.67 0 19.34 0 19 C1.65 18.67 3.3 18.34 5 18 C5.66 15.69 6.32 13.38 7 11 C7.66 11 8.32 11 9 11 C9 12.32 9 13.64 9 15 C9.66 14.67 10.32 14.34 11 14 C11.25015873 10.58357241 11.25015873 10.58357241 11 7 C8.09907498 5.06604999 7.10325263 4.69868059 3.8125 4.375 C2.554375 4.25125 1.29625 4.1275 0 4 C0 2.68 0 1.36 0 0 Z " fill="#292929" transform="translate(104,79)"/>
<path d="M0 0 C2.44380922 1.22190461 3.21361089 2.78810417 4.64453125 5.046875 C7.01567316 8.463506 9.78634898 11.57255509 12.48828125 14.73046875 C12.98714844 15.47941406 13.48601562 16.22835938 14 17 C12.75596862 20.73209414 10.82756102 22.30708475 8 25 C7.443125 25.598125 6.88625 26.19625 6.3125 26.8125 C5 28 5 28 3 28 C2.01 25.03 1.02 22.06 0 19 C1.32 19.66 2.64 20.32 4 21 C4 21.66 4 22.32 4 23 C4.66 23 5.32 23 6 23 C4.75023244 19.34683329 4.32901247 18.21934164 1 16 C1 14.68 1 13.36 1 12 C4.33537489 13.11179163 5.63707344 14.47411298 8 17 C6.12750461 12.8177768 3.3198047 9.67888967 0.36328125 6.21875 C-1 4 -1 4 -0.70703125 1.71875 C-0.47371094 1.1515625 -0.24039063 0.584375 0 0 Z " fill="#222222" transform="translate(56,11)"/>
<path d="M0 0 C4.11284562 1.72719256 8.31270773 3.04416592 12.578125 4.33984375 C15.24577841 5.36030153 17.09973873 6.36741149 19.171875 8.33203125 C19.171875 9.32203125 19.171875 10.31203125 19.171875 11.33203125 C14.3694149 10.00859757 9.67970645 8.66142333 5.171875 6.51953125 C-0.26843796 3.97153657 -5.98783977 2.23838074 -11.70898438 0.43823242 C-12.46888672 0.19435791 -13.22878906 -0.0495166 -14.01171875 -0.30078125 C-14.69806396 -0.51621582 -15.38440918 -0.73165039 -16.09155273 -0.95361328 C-17.828125 -1.66796875 -17.828125 -1.66796875 -19.828125 -3.66796875 C-12.71981264 -6.0374062 -6.49184496 -2.85871853 0 0 Z " fill="#212121" transform="translate(44.828125,111.66796875)"/>
<path d="M0 0 C0.31390173 4.002247 0.34116018 6.38328737 -1.625 9.9375 C-4 12 -4 12 -7.125 12.5 C-8.07375 12.335 -9.0225 12.17 -10 12 C-10.66 11.01 -11.32 10.02 -12 9 C-12.33 9.66 -12.66 10.32 -13 11 C-13.66 11 -14.32 11 -15 11 C-14.91870799 8.23607171 -14.39022472 6.4720282 -12.62109375 4.33203125 C-8.504827 0.45518942 -5.83063806 -0.71395568 0 0 Z " fill="#131313" transform="translate(112,48)"/>
<path d="M0 0 C0.66 0.33 1.32 0.66 2 1 C1.52112335 5.76264597 -0.49488642 8.22641652 -3.5625 11.8125 C-4.80193359 13.27623047 -4.80193359 13.27623047 -6.06640625 14.76953125 C-6.70449219 15.50558594 -7.34257813 16.24164062 -8 17 C-7.4225 16.71125 -6.845 16.4225 -6.25 16.125 C-4.16666667 15.08333333 -2.08333333 14.04166667 0 13 C-1.65 16.3 -3.3 19.6 -5 23 C-3.35 22.01 -1.7 21.02 0 20 C-0.52268466 22.76276177 -1.10869587 25.3260876 -2 28 C-6.00754167 26.66415278 -7.37476236 24.23106172 -10 21 C-10.66 20.67 -11.32 20.34 -12 20 C-11.56905875 15.133955 -9.14326718 12.37625039 -6 8.875 C-2.34926025 4.85408184 -2.34926025 4.85408184 0 0 Z " fill="#1C1C1C" transform="translate(121,11)"/>
<path d="M0 0 C5.2193712 -0.6524214 8.02909179 0.87923947 12.265625 3.61328125 C14 5 14 5 16 8 C16 8.99 16 9.98 16 11 C15.01 10.67 14.02 10.34 13 10 C13 9.34 13 8.68 13 8 C12.34 8 11.68 8 11 8 C10.67 9.32 10.34 10.64 10 12 C6.625 11.6875 6.625 11.6875 3 11 C0.43383368 7.15075052 0.44902324 4.5650696 0 0 Z " fill="#2C2C2C" transform="translate(66,48)"/>
<path d="M0 0 C0.99 0.33 1.98 0.66 3 1 C2.45859375 1.68835938 2.45859375 1.68835938 1.90625 2.390625 C1.4421875 3.00421875 0.978125 3.6178125 0.5 4.25 C0.0359375 4.85328125 -0.428125 5.4565625 -0.90625 6.078125 C-2.32974419 8.21085595 -2.32974419 8.21085595 -2 12 C-1.34 12.33 -0.68 12.66 0 13 C0 12.01 0 11.02 0 10 C0.66 10 1.32 10 2 10 C2.2475 10.78375 2.495 11.5675 2.75 12.375 C4.15389099 15.32317108 5.00675737 15.9024777 8 17 C7 18 7 18 3.40234375 18.09765625 C1.91403133 18.0909822 0.42573568 18.07902183 -1.0625 18.0625 C-1.82111328 18.05798828 -2.57972656 18.05347656 -3.36132812 18.04882812 C-5.24091871 18.0370068 -7.12046899 18.01907078 -9 18 C-9 17.34 -9 16.68 -9 16 C-9.66 15.67 -10.32 15.34 -11 15 C-9.35 14.67 -7.7 14.34 -6 14 C-6.12375 12.1746875 -6.12375 12.1746875 -6.25 10.3125 C-6.26200396 6.9273826 -6.03913893 6.06131766 -4.125 3.0625 C-2 1 -2 1 0 0 Z " fill="#202020" transform="translate(102,80)"/>
<path d="M0 0 C0.33 0 0.66 0 1 0 C1 20.79 1 41.58 1 63 C0.34 62.67 -0.32 62.34 -1 62 C-1 43.52 -1 25.04 -1 6 C-1.99 6.66 -2.98 7.32 -4 8 C-2.87548273 5.0280615 -1.77706209 2.66559313 0 0 Z " fill="#B6B6B6" transform="translate(87,106)"/>
<path d="M0 0 C3.36016893 1.12005631 4.69064913 2.37211797 7 5 C7 5.66 7 6.32 7 7 C7.66 7 8.32 7 9 7 C8.52354792 11.28806873 7.34097516 13.26647487 4 16 C3.34 16 2.68 16 2 16 C1.01 13.03 0.02 10.06 -1 7 C0.98 7.99 0.98 7.99 3 9 C3 9.66 3 10.32 3 11 C3.66 11 4.32 11 5 11 C3.75023244 7.34683329 3.32901247 6.21934164 0 4 C0 2.68 0 1.36 0 0 Z " fill="#2B2B2B" transform="translate(57,23)"/>
<path d="M0 0 C-2.36012878 2.7083445 -4.59993115 3.85019927 -7.9375 5.125 C-8.79214844 5.45757812 -9.64679688 5.79015625 -10.52734375 6.1328125 C-12.67520185 6.88608975 -14.78254968 7.49580016 -17 8 C-17 7.34 -17 6.68 -17 6 C-17.66 5.34 -18.32 4.68 -19 4 C-16.58732675 3.132758 -14.17095531 2.28103064 -11.75 1.4375 C-11.06808594 1.19064453 -10.38617188 0.94378906 -9.68359375 0.68945312 C-3.41657839 -1.47053761 -3.41657839 -1.47053761 0 0 Z " fill="#282828" transform="translate(123,118)"/>
<path d="M0 0 C1.98 0 3.96 0 6 0 C5.938125 0.94875 5.87625 1.8975 5.8125 2.875 C5.874375 3.90625 5.93625 4.9375 6 6 C6.99 6.66 7.98 7.32 9 8 C5.37 8.33 1.74 8.66 -2 9 C-2 8.34 -2 7.68 -2 7 C-1.01 6.67 -0.02 6.34 1 6 C0.67 4.02 0.34 2.04 0 0 Z " fill="#303030" transform="translate(86,62)"/>
<path d="M0 0 C1.65 0.33 3.3 0.66 5 1 C4.04454634 2.46022163 3.08553322 3.91811468 2.125 5.375 C1.59132813 6.18710938 1.05765625 6.99921875 0.5078125 7.8359375 C-1.52903051 10.75928213 -2.56752424 11.85584141 -6 13 C-4.58707905 8.1725201 -2.57025846 4.2837641 0 0 Z " fill="#1E1E1E" transform="translate(84,104)"/>
<path d="M0 0 C4.82382465 0.26799026 6.86565605 2.50744532 10 6 C8 7 8 7 4.5 6.3125 C1 5 1 5 -0.4375 2.875 C-0.623125 2.25625 -0.80875 1.6375 -1 1 C-0.67 0.67 -0.34 0.34 0 0 Z " fill="#E0E0E0" transform="translate(120,70)"/>
<path d="M0 0 C1.32 0.66 2.64 1.32 4 2 C4 4 4 4 2.5 5.6875 C-1.25329805 7.65798148 -3.87973524 6.75538187 -8 6 C-5.38485683 3.87961365 -2.80362384 1.86908256 0 0 Z " fill="#D8D8D8" transform="translate(56,69)"/>
<path d="M0 0 C0.680625 0.07863281 1.36125 0.15726562 2.0625 0.23828125 C4 0.6875 4 0.6875 7 2.6875 C6.01 2.6875 5.02 2.6875 4 2.6875 C4.33 3.6775 4.66 4.6675 5 5.6875 C3.37276701 5.23715877 1.74826336 4.77694646 0.125 4.3125 C-0.77992187 4.05726562 -1.68484375 3.80203125 -2.6171875 3.5390625 C-5 2.6875 -5 2.6875 -7 0.6875 C-4.09583903 -0.28055366 -2.92345144 -0.37096827 0 0 Z " fill="#323232" transform="translate(32,107.3125)"/>
<path d="M0 0 C0.66 0.33 1.32 0.66 2 1 C1.56611018 5.91741794 -0.5589194 8.5589194 -4 12 C-6.8125 12.875 -6.8125 12.875 -9 13 C-8.60167969 12.48050781 -8.20335938 11.96101563 -7.79296875 11.42578125 C-4.97822677 7.72073158 -2.28614026 4.06424935 0 0 Z " fill="#1C1C1C" transform="translate(121,11)"/>
<path d="M0 0 C0.99 0.33 1.98 0.66 3 1 C1.85821872 2.66944521 0.71147095 4.3354948 -0.4375 6 C-1.07558594 6.928125 -1.71367188 7.85625 -2.37109375 8.8125 C-2.90863281 9.534375 -3.44617188 10.25625 -4 11 C-4.33 11 -4.66 11 -5 11 C-5.3125 7.75 -5.3125 7.75 -5 4 C-2.6875 1.5 -2.6875 1.5 0 0 Z " fill="#191919" transform="translate(102,80)"/>
<path d="M0 0 C1 3 1 3 0.22265625 5.04296875 C-0.16019531 5.75066406 -0.54304688 6.45835938 -0.9375 7.1875 C-1.31777344 7.90292969 -1.69804688 8.61835937 -2.08984375 9.35546875 C-2.39019531 9.89816406 -2.69054687 10.44085938 -3 11 C-3.99 11 -4.98 11 -6 11 C-6.33 10.01 -6.66 9.02 -7 8 C-6.34 8 -5.68 8 -5 8 C-4.731875 7.05125 -4.46375 6.1025 -4.1875 5.125 C-3 2 -3 2 0 0 Z " fill="#111111" transform="translate(80,115)"/>
<path d="M0 0 C2.31 0 4.62 0 7 0 C6.01 0.66 5.02 1.32 4 2 C3.74969023 4.58380177 3.74969023 4.58380177 4 7 C2.68 7.33 1.36 7.66 0 8 C0 5.36 0 2.72 0 0 Z " fill="#7D7D7D" transform="translate(105,48)"/>
<path d="M0 0 C-2.52956528 3.0916909 -5.22454612 3.90931332 -9 5 C-9.33 3.68 -9.66 2.36 -10 1 C-3.71428571 -1.42857143 -3.71428571 -1.42857143 0 0 Z " fill="#1F1F1F" transform="translate(123,118)"/>
<path d="M0 0 C0.33 0.66 0.66 1.32 1 2 C0.2575 2.8971875 0.2575 2.8971875 -0.5 3.8125 C-2.28276418 5.97029994 -2.28276418 5.97029994 -2 9 C-3.32 9 -4.64 9 -6 9 C-5.69381595 5.32579134 -5.24228216 4.21864487 -2.4375 1.6875 C-1.633125 1.130625 -0.82875 0.57375 0 0 Z " fill="#131313" transform="translate(115,22)"/>
<path d="M0 0 C-1.125 2 -1.125 2 -3 4 C-6.1875 4.25 -6.1875 4.25 -9 4 C-6.35287314 0.09233654 -4.86783735 -1.62261245 0 0 Z " fill="#1A1A1A" transform="translate(141,111)"/>
<path d="M0 0 C-2.40436026 3.60654039 -3.94679607 3.85452932 -8 5 C-7.67 3.35 -7.34 1.7 -7 0 C-3.86650268 -1.04449911 -3.01031744 -0.93423645 0 0 Z " fill="#272727" transform="translate(147,109)"/>
<path d="M0 0 C0.66 0.33 1.32 0.66 2 1 C1.01 1.8971875 1.01 1.8971875 0 2.8125 C-2.3373846 4.87501834 -2.3373846 4.87501834 -2 8 C-3.98 8.99 -3.98 8.99 -6 10 C-5.58578031 5.16743695 -3.53586014 3.17320782 0 0 Z " fill="#262626" transform="translate(103,49)"/>
<path d="M0 0 C1.2077558 3.62326739 0.54311128 4.64146369 -1 8 C-1.99 7.67 -2.98 7.34 -4 7 C-4.6875 4.9375 -4.6875 4.9375 -5 3 C-3.35 2.01 -1.7 1.02 0 0 Z " fill="#151515" transform="translate(120,31)"/>
<path d="M0 0 C0.66 0.33 1.32 0.66 2 1 C1.34 1.66 0.68 2.32 0 3 C0.33 3.66 0.66 4.32 1 5 C-1.31 5.33 -3.62 5.66 -6 6 C-6 5.01 -6 4.02 -6 3 C-4.03533587 1.93224776 -2.03144641 0.93446535 0 0 Z " fill="#3D3D3D" transform="translate(115,69)"/>
<path d="M0 0 C0 1.32 0 2.64 0 4 C-0.66 4 -1.32 4 -2 4 C-2.33 4.66 -2.66 5.32 -3 6 C-3.66 6 -4.32 6 -5 6 C-5.99 6.495 -5.99 6.495 -7 7 C-3.86206897 0 -3.86206897 0 0 0 Z " fill="#272727" transform="translate(66,80)"/>
<path d="M0 0 C0.33 0.66 0.66 1.32 1 2 C1.99 2 2.98 2 4 2 C3.67 2.99 3.34 3.98 3 5 C2.34 5 1.68 5 1 5 C0.01 5.33 -0.98 5.66 -2 6 C-1.125 1.125 -1.125 1.125 0 0 Z " fill="#BCBCBC" transform="translate(118,28)"/>
<path d="M0 0 C2.64 0.66 5.28 1.32 8 2 C6.68 2.99 5.36 3.98 4 5 C2 3.625 2 3.625 0 2 C0 1.34 0 0.68 0 0 Z " fill="#C0C0C0" transform="translate(127,69)"/>
<path d="M0 0 C1.98 0 3.96 0 6 0 C6 0.99 6 1.98 6 3 C5.01 3.33 4.02 3.66 3 4 C2.01 3.34 1.02 2.68 0 2 C0 1.34 0 0.68 0 0 Z " fill="#202020" transform="translate(86,62)"/>
<path d="M0 0 C2.97 0.495 2.97 0.495 6 1 C4.1875 3 4.1875 3 2 5 C1.01 5 0.02 5 -1 5 C-1 4.34 -1 3.68 -1 3 C-0.34 2.67 0.32 2.34 1 2 C0.67 1.34 0.34 0.68 0 0 Z " fill="#2C2C2C" transform="translate(49,69)"/>
<path d="M0 0 C0.66 0.33 1.32 0.66 2 1 C1.67 2.65 1.34 4.3 1 6 C-0.65 6.33 -2.3 6.66 -4 7 C-2.68 4.69 -1.36 2.38 0 0 Z " fill="#2E2E2E" transform="translate(121,11)"/>
</svg>
